<?xml version="1.0" standalone="no"?><!DOCTYPE svg PUBLIC "-//W3C//DTD SVG 1.1//EN" "http://www.w3.org/Graphics/SVG/1.1/DTD/svg11.dtd"><svg t="1636985620024" class="icon" viewBox="0 0 1024 1024" version="1.1" xmlns="http://www.w3.org/2000/svg" p-id="18569" xmlns:xlink="http://www.w3.org/1999/xlink" width="32" height="32"><defs><style type="text/css"></style></defs><path d="M341.504 269.53728h372.224c51.2 0 93.184 41.472 93.184 93.184v403.456c0 51.2-41.472 93.184-93.184 93.184H341.504c-51.2 0-93.184-41.472-93.184-93.184v-403.456c0-51.712 41.472-93.184 93.184-93.184z" fill="#69c0ff" p-id="18570" data-spm-anchor-id="a313x.7781069.0.i23" class=""></path><path d="M903.168 370.40128v-29.696l-239.616-239.616H244.224c-66.048 0-119.808 53.76-119.808 119.808v658.944c0 66.048 53.76 119.808 119.808 119.808H783.36c66.048 0 119.808-53.76 119.808-119.808v-509.44z m-239.616-149.504l119.808 119.808h-119.808v-119.808z m179.712 658.944c0 33.28-26.624 59.904-59.904 59.904H244.224c-33.28 0-59.904-26.624-59.904-59.904v-658.944c0-33.28 26.624-59.904 59.904-59.904h359.424v209.92c0 16.384 13.312 30.208 30.208 30.208h209.92v478.72z m-477.696-323.584c-17.408-17.92-45.568-18.432-63.488-1.024s-18.432 45.568-1.024 63.488l1.024 1.024 105.984 105.984c9.216 4.608 16.896 11.776 20.992 20.992 17.408 17.408 46.08 17.408 63.488 0l232.96-232.96c17.408-17.92 16.896-46.08-1.024-63.488-17.408-16.896-45.056-16.896-62.464 0l-201.216 201.728-95.232-95.744z" fill="#1890ff" p-id="18571" data-spm-anchor-id="a313x.7781069.0.i21" class=""></path></svg>