<?xml version="1.0" standalone="no"?><!DOCTYPE svg PUBLIC "-//W3C//DTD SVG 1.1//EN" "http://www.w3.org/Graphics/SVG/1.1/DTD/svg11.dtd"><svg t="1636985554082" class="icon" viewBox="0 0 1024 1024" version="1.1" xmlns="http://www.w3.org/2000/svg" p-id="12657" xmlns:xlink="http://www.w3.org/1999/xlink" width="32" height="32"><defs><style type="text/css"></style></defs><path d="M512 0a512 512 0 1 0 512 512A512.8192 512.8192 0 0 0 512 0zM267.264 458.24l225.792-225.28a81.2544 81.2544 0 0 1 32.768-17.408l-5.12 270.848-270.848 5.12a43.9808 43.9808 0 0 1 17.408-33.28z m501.248 285.696H257.536a27.648 27.648 0 1 1 0-55.296h137.728l-132.608-132.608a58.9312 58.9312 0 0 1-17.408-32.768l285.696-2.56a12.8512 12.8512 0 0 0 12.288-7.68c2.56-5.12 7.68-7.68 7.68-12.8l5.12-288.256a74.7008 74.7008 0 0 1 32.768 17.408l167.936 167.936a70.4 70.4 0 0 1-2.56 97.792l-187.904 187.904h200.704a28.8256 28.8256 0 0 1 27.648 30.208 26.4192 26.4192 0 0 1-26.112 30.72z" fill="#1890ff" p-id="12658" data-spm-anchor-id="a313x.7781069.0.i15" class=""></path></svg>