<?xml version="1.0" standalone="no"?><!DOCTYPE svg PUBLIC "-//W3C//DTD SVG 1.1//EN" "http://www.w3.org/Graphics/SVG/1.1/DTD/svg11.dtd"><svg t="1636985101039" class="icon" viewBox="0 0 1024 1024" version="1.1" xmlns="http://www.w3.org/2000/svg" p-id="5508" data-spm-anchor-id="a313x.7781069.0.i14" xmlns:xlink="http://www.w3.org/1999/xlink" width="32" height="32"><defs><style type="text/css"></style></defs><path d="M384 832a64 64 0 1 0-128 0H96a64 64 0 0 1-64-64V160a64 64 0 0 1 64-64h160a64 64 0 1 0 128 0h448a64 64 0 0 1 64 64v290.24A256 256 0 0 0 568.16 832H384z" fill="#1890ff" p-id="5509" data-spm-anchor-id="a313x.7781069.0.i7" class=""></path><path d="M356.544 436.608v40h70.368c12.96 0 23.392 10.496 23.392 23.584a23.584 23.584 0 0 1-23.392 23.648h-70.368v38.656a23.52 23.52 0 0 1-46.976 0V523.84h-64.64a23.616 23.616 0 0 1 0-47.232h64.64v-40H215.68a23.616 23.616 0 0 1 0-47.2h56.736l-60.64-61.12a23.68 23.68 0 0 1 0-33.376 23.456 23.456 0 0 1 33.184 0l86.08 86.688 86.176-86.72a23.392 23.392 0 0 1 33.184 0 23.68 23.68 0 0 1 0 33.44l-60.672 61.088h60.8c12.928 0 23.36 10.56 23.36 23.584a23.52 23.52 0 0 1-23.36 23.616h-93.984z" fill="#FFFFFF" p-id="5510"></path><path d="M932.576 823.968c9.184 0.832 18.112 4.8 25.12 11.808l32.576 32.576a40.96 40.96 0 1 1-57.92 57.92l-32.576-32.576a40.864 40.864 0 0 1-11.84-32.48 224 224 0 1 1 44.64-37.28z m-0.16-152.576c-1.536-88.352-75.392-158.72-164.992-157.152-89.6 1.568-160.96 74.464-159.424 162.816 1.536 88.32 75.424 158.72 164.992 157.12 89.6-1.536 160.96-74.432 159.424-162.784z" fill="#69c0ff" p-id="5511" data-spm-anchor-id="a313x.7781069.0.i9" class=""></path></svg>